<svg id="Capa_1" data-name="Capa 1" xmlns="http://www.w3.org/2000/svg" viewBox="0 0 20 16.4"><defs><style>.cls-1{fill:#fff;}</style></defs><path d="M0,6.67A7,7,0,0,1,6.68,1.73a9.09,9.09,0,0,1,6.5,1.85,4.48,4.48,0,0,1,0,7.31,8.94,8.94,0,0,1-7,1.69,1.57,1.57,0,0,0-1.24.26A35.89,35.89,0,0,1,1.54,15l1.71-3.3A6,6,0,0,1,0,7.87Zm3.64-.42V7.78H5.16V6.25ZM6.82,7.8H8.36V6.26H6.82ZM10,6.23V7.78h1.5V6.23Z" transform="translate(0 -1.71)"/><path d="M20,11.33A5.76,5.76,0,0,1,16.94,15L18.53,18l-.07.09c-1-.68-2-1.31-3-2A1.81,1.81,0,0,0,14,15.79a8.44,8.44,0,0,1-6.23-1.5,2.17,2.17,0,0,1-.25-.23c1.3-.28,2.65-.49,3.94-.89a7.39,7.39,0,0,0,3.76-2.63,5,5,0,0,0,1-4.32c1.6.29,3,1.72,3.74,3.91Z" transform="translate(0 -1.71)"/><path class="cls-1" d="M3.64,6.25H5.16V7.78H3.64Z" transform="translate(0 -1.71)"/><path class="cls-1" d="M6.82,7.8V6.26H8.36V7.8Z" transform="translate(0 -1.71)"/><path class="cls-1" d="M10,6.23h1.5V7.78H10Z" transform="translate(0 -1.71)"/></svg>