<svg xmlns="http://www.w3.org/2000/svg" viewBox="0 0 19.29 19.26"><defs><style>.cls-1{fill:#fff;stroke:#000;stroke-miterlimit:10;}</style></defs><g id="Capa_1" data-name="Capa 1"><path class="cls-1" d="M3.35,1,6.48,5.82l-1,2.57a15.15,15.15,0,0,0,6.1,6.11l2.56-1L19,16.67l-1.44,1.45a5.21,5.21,0,0,1-3,.88,10.05,10.05,0,0,1-4.82-1.37,20.68,20.68,0,0,1-6.58-5.94A18.79,18.79,0,0,1,1.42,7.91a7.11,7.11,0,0,1-.08-4.5A8.52,8.52,0,0,1,3.35,1Z" transform="translate(-0.5 -0.24)"/><path class="cls-1" d="M9.61,8.23a2,2,0,0,1,2.17,2.09h1.44A3.52,3.52,0,0,0,9.61,6.79Z" transform="translate(-0.5 -0.24)"/><path class="cls-1" d="M9.61,5.34s4.81-.4,5.14,5h1.44S16,4.13,9.61,3.89Z" transform="translate(-0.5 -0.24)"/><path class="cls-1" d="M9.61,1S18.36.92,19,10.32H17.72s-.16-6.75-8.11-7.87Z" transform="translate(-0.5 -0.24)"/></g></svg>