<!DOCTYPE svg PUBLIC "-//W3C//DTD SVG 20010904//EN" "http://www.w3.org/TR/2001/REC-SVG-20010904/DTD/svg10.dtd">
<svg version="1.0" xmlns="http://www.w3.org/2000/svg" width="640px" height="399px" viewBox="0 0 6400 3990" preserveAspectRatio="xMidYMid meet">
<g id="layer101" fill="#493540" stroke="none">
 <path d="M550 3964 c0 -15 17 -59 39 -98 304 -558 581 -1239 581 -1428 0 -120 -107 -235 -340 -365 -125 -71 -146 -81 -325 -157 -16 -7 -84 -32 -150 -56 -258 -91 -348 -134 -353 -168 -6 -40 -12 -40 648 -31 321 3 368 0 415 -35 25 -18 25 -91 -1 -168 -30 -92 -123 -280 -241 -488 -71 -125 -352 -536 -475 -695 -43 -55 -78 -106 -78 -112 0 -35 74 6 265 146 74 54 256 200 270 215 25 28 305 250 385 305 205 142 249 162 366 169 114 6 152 -6 202 -63 69 -79 101 -194 127 -465 27 -279 49 -399 81 -449 24 -36 37 -14 83 144 43 150 87 275 146 420 20 50 46 112 57 139 82 207 174 282 296 242 143 -48 268 -139 637 -465 87 -76 171 -144 198 -157 47 -25 56 -5 28 58 -78 174 -102 298 -67 337 31 34 101 29 183 -15 59 -31 229 -146 243 -164 7 -9 397 -301 433 -325 21 -13 31 -15 39 -7 16 16 0 46 -99 203 -43 68 -97 158 -120 199 -106 195 -125 358 -39 336 13 -3 66 -52 118 -108 145 -161 217 -230 293 -285 77 -56 311 -198 349 -212 12 -5 48 -26 79 -45 31 -20 61 -36 66 -36 6 0 39 -14 73 -31 35 -17 70 -34 78 -39 8 -4 39 -13 68 -20 46 -12 54 -12 68 1 13 14 10 22 -29 75 -24 32 -81 93 -126 134 -228 205 -311 317 -311 416 0 37 5 47 33 68 49 38 114 50 236 43 161 -8 277 -59 391 -168 63 -60 125 -147 164 -228 83 -175 128 -219 170 -172 56 62 -27 336 -151 502 -84 112 -147 169 -281 256 -121 78 -129 93 -52 93 81 0 357 -81 405 -119 5 -5 44 -27 85 -49 86 -45 178 -76 295 -96 68 -12 82 -12 94 0 25 23 -13 54 -274 223 -92 59 -307 224 -398 306 -251 223 -282 284 -178 349 95 60 431 110 924 136 104 5 197 15 208 20 41 23 17 48 -80 82 -83 29 -357 105 -481 133 -30 7 -80 20 -110 30 -121 38 -176 56 -195 64 -139 62 -185 97 -185 143 0 40 1 41 159 252 188 250 371 521 371 549 0 4 -6 10 -14 13 -15 6 -74 -34 -231 -157 -193 -150 -285 -209 -352 -224 -87 -18 -105 33 -78 225 8 61 15 120 15 131 0 31 -40 44 -96 30 -45 -12 -91 -39 -254 -152 -100 -69 -186 -108 -264 -122 -51 -9 -68 -8 -80 2 -24 20 -19 76 11 145 31 70 135 242 192 320 55 74 116 176 153 254 34 71 50 172 29 172 -7 0 -49 -37 -94 -83 -73 -73 -233 -208 -311 -262 -16 -11 -41 -29 -56 -40 -43 -31 -173 -119 -190 -128 -8 -4 -46 -27 -85 -52 -132 -83 -340 -203 -441 -254 -183 -91 -256 -104 -579 -98 -216 3 -262 7 -335 26 -47 12 -94 26 -105 30 -11 5 -56 21 -100 36 -44 15 -94 33 -112 41 -17 8 -34 14 -38 14 -9 0 -53 20 -180 81 -208 101 -375 196 -560 319 -215 143 -243 160 -259 160 -9 0 -16 -6 -16 -14 0 -32 111 -179 311 -413 100 -116 129 -163 129 -207 0 -35 -31 -49 -100 -44 -151 11 -331 156 -815 657 -177 183 -361 351 -385 351 -15 0 -20 -7 -20 -26z"/>
 </g>
<g id="layer102" fill="#ec028d" stroke="none">
 <path d="M550 3964 c0 -15 17 -59 39 -98 304 -558 581 -1239 581 -1428 0 -120 -107 -235 -340 -365 -125 -71 -146 -81 -325 -157 -16 -7 -84 -32 -150 -56 -258 -91 -348 -134 -353 -168 -6 -40 -12 -40 648 -31 321 3 368 0 415 -35 25 -18 25 -91 -1 -168 -30 -92 -123 -280 -241 -488 -71 -125 -352 -536 -475 -695 -43 -55 -78 -106 -78 -112 0 -35 74 6 265 146 74 54 256 200 270 215 25 28 305 250 385 305 205 142 249 162 366 169 114 6 152 -6 202 -63 69 -79 101 -194 127 -465 27 -279 49 -399 81 -449 24 -36 37 -14 83 144 43 150 87 275 146 420 20 50 46 112 57 139 82 207 174 282 296 242 143 -48 268 -139 637 -465 87 -76 171 -144 198 -157 47 -25 56 -5 28 58 -78 174 -102 298 -67 337 31 34 101 29 183 -15 59 -31 229 -146 243 -164 7 -9 397 -301 433 -325 21 -13 31 -15 39 -7 16 16 0 46 -99 203 -43 68 -97 158 -120 199 -106 195 -125 358 -39 336 13 -3 66 -52 118 -108 145 -161 217 -230 293 -285 77 -56 311 -198 349 -212 12 -5 48 -26 79 -45 31 -20 61 -36 66 -36 6 0 39 -14 73 -31 35 -17 70 -34 78 -39 8 -4 39 -13 68 -20 46 -12 54 -12 68 1 13 14 10 22 -29 75 -24 32 -81 93 -126 134 -228 205 -311 317 -311 416 0 37 5 47 33 68 49 38 114 50 236 43 161 -8 277 -59 391 -168 56 -54 122 -142 152 -203 12 -25 26 -46 31 -46 4 0 5 -4 2 -10 -3 -5 -2 -10 3 -10 6 0 9 -8 8 -17 0 -10 4 -17 11 -16 7 2 10 -3 7 -11 -3 -8 0 -17 7 -22 8 -4 10 -3 5 4 -4 7 -5 12 -2 12 3 0 10 -10 17 -21 9 -17 8 -20 -2 -14 -16 10 -4 -12 24 -42 25 -27 48 -29 69 -5 19 21 32 96 16 86 -7 -5 -9 2 -4 20 15 60 -75 282 -161 397 -84 112 -147 169 -281 256 -121 78 -129 93 -52 93 81 0 357 -81 405 -119 5 -5 44 -27 85 -49 86 -45 178 -76 295 -96 68 -12 82 -12 94 0 25 23 -13 54 -274 223 -92 59 -307 224 -398 306 -251 223 -282 284 -178 349 95 60 431 110 924 136 104 5 197 15 208 20 41 23 17 48 -80 82 -83 29 -357 105 -481 133 -30 7 -80 20 -110 30 -121 38 -176 56 -195 64 -139 62 -185 97 -185 143 0 40 1 41 159 252 188 250 371 521 371 549 0 4 -6 10 -14 13 -15 6 -74 -34 -231 -157 -193 -150 -285 -209 -352 -224 -87 -18 -105 33 -78 225 8 61 15 120 15 131 0 31 -40 44 -96 30 -45 -12 -91 -39 -254 -152 -100 -69 -186 -108 -264 -122 -51 -9 -68 -8 -80 2 -24 20 -19 76 11 145 31 70 135 242 192 320 55 74 116 176 153 254 34 71 50 172 29 172 -7 0 -49 -37 -94 -83 -73 -73 -233 -208 -311 -262 -16 -11 -41 -29 -56 -40 -43 -31 -173 -119 -190 -128 -8 -4 -46 -27 -85 -52 -132 -83 -340 -203 -441 -254 -183 -91 -256 -104 -579 -98 -216 3 -262 7 -335 26 -47 12 -94 26 -105 30 -11 5 -56 21 -100 36 -44 15 -94 33 -112 41 -17 8 -34 14 -38 14 -9 0 -53 20 -180 81 -208 101 -375 196 -560 319 -215 143 -243 160 -259 160 -9 0 -16 -6 -16 -14 0 -32 111 -179 311 -413 100 -116 129 -163 129 -207 0 -35 -31 -49 -100 -44 -151 11 -331 156 -815 657 -177 183 -361 351 -385 351 -15 0 -20 -7 -20 -26z m1750 -1510 c0 -10 -6 -14 -15 -10 -12 4 -15 -4 -15 -39 0 -38 3 -45 20 -45 11 0 20 -4 20 -10 0 -12 -65 -24 -87 -15 -17 6 -17 7 0 19 19 14 25 96 7 96 -5 0 -10 5 -10 10 0 6 18 10 40 10 30 0 40 -4 40 -16z m52 -24 c2 -14 11 -26 21 -28 14 -3 17 4 17 32 0 20 5 36 10 36 14 0 12 -76 -2 -87 -7 -5 -26 -9 -42 -8 -26 1 -30 6 -34 34 -7 62 21 82 30 21z m98 21 c0 -30 11 -51 26 -51 9 0 14 12 14 35 0 19 5 35 11 35 6 0 9 -19 7 -47 -3 -48 -3 -48 -40 -49 l-38 -1 0 48 c0 27 5 49 10 49 6 0 10 -9 10 -19z m159 -7 c10 -22 9 -31 -4 -50 -18 -28 -32 -30 -57 -7 -33 30 -20 83 21 83 20 0 31 -7 40 -26z m91 -14 c11 -23 18 -46 14 -52 -4 -6 -14 3 -25 23 l-18 34 -11 -32 c-11 -29 -30 -46 -30 -26 0 17 34 93 41 93 5 0 18 -18 29 -40z m113 -2 c-8 -62 -36 -75 -73 -36 -38 42 -20 78 41 78 l37 0 -5 -42z m42 10 c11 -36 35 -50 35 -20 0 28 10 52 22 52 9 0 4 -71 -7 -89 -3 -6 -20 -9 -38 -7 -30 3 -32 6 -35 50 -4 53 9 61 23 14z m175 -38 c0 -40 -4 -70 -10 -70 -5 0 -10 8 -10 19 0 13 -9 20 -30 25 -38 7 -57 44 -41 75 9 16 21 21 51 21 l40 0 0 -70z m101 44 c7 -20 6 -32 -6 -50 -18 -28 -32 -30 -57 -7 -34 31 -20 83 23 83 23 0 32 -6 40 -26z m129 -8 c0 -21 6 -36 15 -40 18 -6 20 -26 4 -26 -7 0 -18 -8 -25 -17 -13 -17 -13 -17 -14 0 0 9 -7 17 -15 17 -8 0 -15 5 -15 10 0 6 7 13 15 16 9 4 15 19 15 40 0 19 5 34 10 34 6 0 10 -15 10 -34z m130 -16 c0 -58 -17 -68 -22 -13 -2 27 -8 39 -20 41 -15 3 -18 -4 -18 -37 0 -23 -4 -41 -10 -41 -11 0 -14 83 -3 93 3 4 21 7 40 7 l33 0 0 -50z m168 33 c2 -9 -5 -11 -27 -7 -36 7 -41 -7 -9 -21 45 -20 24 -65 -22 -50 -26 8 -42 52 -29 76 8 16 19 19 46 17 20 -2 38 -9 41 -15z m90 5 c14 -14 -2 -48 -23 -48 -8 0 -15 -5 -15 -11 0 -5 9 -9 20 -7 10 2 19 -1 20 -7 1 -15 -39 -18 -56 -5 -22 19 -17 39 14 52 l27 12 -32 4 c-18 2 -33 7 -33 13 0 13 64 11 78 -3z m72 -22 c0 -21 6 -36 15 -40 18 -6 20 -26 4 -26 -7 0 -18 -8 -25 -17 -13 -17 -13 -17 -14 0 0 9 -7 17 -15 17 -8 0 -15 5 -15 10 0 6 7 13 15 16 9 4 15 19 15 40 0 19 5 34 10 34 6 0 10 -15 10 -34z m80 -17 c0 -28 -4 -39 -15 -39 -11 0 -15 11 -15 38 0 21 3 42 6 45 14 13 24 -6 24 -44z m50 -19 c0 -40 -4 -70 -10 -70 -6 0 -10 30 -10 70 0 40 4 70 10 70 6 0 10 -30 10 -70z m103 49 c13 -21 2 -65 -19 -73 -38 -15 -75 35 -54 74 13 25 57 24 73 -1z m-153 -98 c0 -6 -4 -13 -10 -16 -5 -3 -10 1 -10 9 0 9 5 16 10 16 6 0 10 -4 10 -9z m-2099 -234 c69 -46 103 -127 115 -270 8 -99 -7 -207 -39 -279 -25 -56 -91 -124 -129 -133 -13 -3 -81 -4 -153 -3 l-130 3 -3 82 -3 82 33 3 33 3 0 185 0 185 -32 3 -33 3 0 80 0 79 154 0 c143 0 155 -2 187 -23z m389 -61 l0 -85 -27 -3 -28 -3 -3 -177 -2 -178 30 0 30 0 0 -90 0 -90 -125 0 -125 0 0 90 0 90 30 0 30 0 -2 178 -3 177 -25 0 c-25 0 -25 2 -28 88 l-3 87 126 0 125 0 0 -84z m118 56 l4 -23 23 25 c21 23 32 26 89 26 59 0 69 -3 101 -31 49 -43 68 -113 63 -232 -5 -152 -46 -203 -175 -215 l-68 -7 0 -40 0 -40 56 -3 c56 -3 56 -3 73 33 15 31 21 35 56 35 l40 0 0 -105 0 -105 -35 0 c-29 0 -36 4 -41 25 l-6 25 -31 -26 c-27 -23 -38 -26 -89 -22 -69 5 -96 26 -129 101 -17 39 -22 72 -23 132 -1 167 66 255 193 255 46 0 51 2 57 25 11 45 0 55 -62 55 -62 0 -94 -18 -94 -52 0 -15 -8 -18 -50 -18 l-50 0 0 106 0 105 48 -3 c40 -3 47 -6 50 -26z m743 -102 c1 -71 2 -137 2 -145 0 -34 -4 -36 -50 -33 l-48 3 0 65 0 65 -75 0 -75 0 0 -45 0 -45 43 -3 43 -3 -3 -82 -3 -82 -42 -3 c-43 -3 -43 -3 -43 -43 l0 -39 75 0 75 0 0 61 0 60 46 -3 47 -3 -1 -145 c-1 -80 -2 -148 -2 -153 0 -4 -96 -6 -212 -5 l-213 3 -3 88 -3 87 31 0 30 0 0 180 0 180 -30 0 -30 0 0 85 0 85 220 0 220 0 1 -130z m207 43 l-3 -87 -30 -1 -30 0 -3 -134 c-1 -74 0 -132 4 -129 3 4 36 102 73 220 l67 213 85 0 84 0 2 -250 c1 -137 3 -255 3 -262 0 -6 12 -13 28 -15 27 -3 27 -4 28 -78 0 -41 -2 -81 -4 -87 -3 -9 -31 -13 -93 -13 l-89 0 0 90 c0 90 0 90 25 90 14 0 28 6 31 13 2 7 3 60 2 118 l-3 104 -68 -207 -68 -208 -114 0 -115 0 0 89 0 90 28 3 27 3 0 175 c0 168 -1 175 -20 175 -36 1 -40 11 -37 94 l4 81 94 0 95 0 -3 -87z m617 2 c0 -75 -1 -80 -22 -83 -25 -4 -26 -5 -17 -51 6 -28 10 -31 44 -31 31 0 39 4 44 23 11 42 7 65 -11 63 -16 -1 -18 10 -21 82 l-3 83 128 -3 128 -3 0 -75 0 -75 -30 -5 -29 -5 -51 -255 c-28 -141 -54 -263 -58 -273 -5 -13 -19 -17 -61 -17 -30 0 -57 4 -61 9 -3 6 -19 76 -35 158 -33 166 -70 363 -70 369 0 2 -13 4 -30 4 l-30 0 0 85 0 86 93 -3 92 -3 0 -80z m540 0 l0 -80 -32 -3 c-32 -3 -33 -4 -33 -53 l0 -49 40 0 c50 0 57 12 70 129 5 49 15 102 22 116 10 23 17 25 73 25 61 0 61 0 80 -37 25 -52 35 -253 12 -253 -10 0 -17 16 -22 55 -3 30 -10 55 -14 55 -5 0 -13 -32 -20 -72 -6 -40 -17 -78 -23 -85 -8 -10 -4 -27 13 -66 31 -68 32 -174 4 -232 -33 -67 -62 -76 -255 -73 l-165 3 -3 83 -3 82 31 0 30 0 0 179 0 180 -27 3 c-28 3 -28 3 -31 91 l-3 88 128 -3 128 -3 0 -80z m593 3 l-3 -83 -32 -3 -33 -3 0 -180 0 -179 35 0 34 0 3 63 3 62 43 3 42 3 0 -155 0 -156 -225 0 -225 0 0 155 0 155 45 0 45 0 0 -63 c0 -35 2 -66 5 -69 3 -2 18 -3 35 0 l30 4 0 179 0 179 -30 0 -30 0 0 85 0 85 130 0 131 0 -3 -82z m-1330 -270 l-3 -93 -47 -3 -48 -3 0 95 0 96 50 0 51 0 -3 -92z m-320 -400 c22 -28 34 -99 21 -129 -11 -27 -13 -28 -24 -12 -13 17 -15 17 -39 -6 -20 -19 -28 -22 -40 -12 -23 20 -39 102 -26 136 11 29 12 29 26 10 14 -19 15 -19 36 3 26 25 32 27 46 10z m2397 -1028 c3 -5 4 -10 1 -10 -3 0 -8 5 -11 10 -3 6 -4 10 -1 10 3 0 8 -4 11 -10z"/>
 <path d="M2554 2436 c-7 -19 3 -36 22 -36 10 0 14 8 12 22 -4 26 -26 36 -34 14z"/>
 <path d="M2750 2426 c0 -23 22 -41 34 -29 3 4 6 17 6 30 0 16 -6 23 -20 23 -14 0 -20 -7 -20 -24z"/>
 <path d="M2956 2435 c-9 -24 1 -35 30 -35 21 0 25 4 22 23 -4 27 -42 36 -52 12z"/>
 <path d="M3074 2435 c-7 -18 3 -35 22 -35 8 0 14 10 14 25 0 27 -27 35 -36 10z"/>
 <path d="M3490 2411 c0 -5 7 -11 15 -15 8 -3 15 -1 15 3 0 5 -7 11 -15 15 -8 3 -15 1 -15 -3z"/>
 <path d="M3898 2438 c-8 -21 2 -38 24 -38 14 0 19 6 16 22 -3 25 -33 36 -40 16z"/>
 <path d="M1557 1973 c-4 -3 -7 -89 -7 -190 l0 -184 37 3 c55 4 76 46 81 160 5 104 -10 170 -46 198 -25 20 -53 26 -65 13z"/>
 <path d="M3765 1758 c7 -43 12 -55 19 -47 2 2 7 23 11 47 6 39 5 42 -15 42 -20 0 -21 -3 -15 -42z"/>
 <path d="M4250 1660 l0 -50 48 0 c42 0 50 3 60 25 8 17 8 33 2 50 -8 22 -15 25 -60 25 l-50 0 0 -50z"/>
 </g>

</svg>